<?xml version="1.0" encoding="UTF-8"?>
<svg version="1.1" viewBox="0 0 1600 1600" width="1280" height="1280" xmlns="http://www.w3.org/2000/svg">
<path transform="translate(801 -.375)" d="m0 0c1.22 3.59e-4 1.22 3.59e-4 2.46 7.25e-4 25.5 0.00948 50.6 0.757 75.9 4.04 2.79 0.357 5.58 0.695 8.38 1.03 22.9 2.75 45.6 5.79 68.2 10.3 1.22 0.238 2.44 0.475 3.7 0.72 44.1 8.62 87.4 21.1 129 37.3 0.874 0.337 1.75 0.674 2.65 1.02 27.7 10.7 54.9 22.7 81.1 36.8 2.16 1.15 4.33 2.29 6.51 3.42 25.8 13.4 50.6 28.5 74.4 45.1 2.49 1.74 4.99 3.46 7.49 5.18 9.25 6.39 18.3 13 27 20 2.05 1.63 4.13 3.24 6.21 4.84 8.87 6.82 17.5 13.8 26 21.2 1.69 1.46 3.38 2.9 5.09 4.34 11.7 9.88 22.9 20.3 33.7 31.2 1.87 1.83 3.8 3.52 5.8 5.21 3.96 3.4 7.42 7.19 10.9 11.1 3.06 3.39 6.21 6.66 9.47 9.87 11.2 11.1 11.2 11.1 12.8 15.8h2c1.35 1.49 2.63 3.04 3.88 4.62 3.05 3.81 6.13 7.56 9.33 11.2 7.01 8.04 13.6 16.4 20 24.9 1.7 2.22 3.42 4.43 5.14 6.64 6.65 8.58 13 17.3 19 26.3 1.12 1.66 2.23 3.32 3.35 4.98 14.2 21.1 27.9 42.3 39.8 64.8 1.74 3.23 3.55 6.43 5.36 9.62 3.96 7.01 7.65 14.1 11 21.4 1.83 4.02 3.77 7.98 5.77 11.9 4.72 9.29 8.93 18.7 13 28.4 0.342 0.813 0.683 1.63 1.04 2.46 31.7 75.8 51.3 156 35.3 519l-0.86 3.26c-8.49 31.9-19.7 63.2-32.1 93.7-0.664 1.65-1.33 3.3-1.99 4.96-3.43 8.51-7.15 16.8-11.1 25.1-0.939 1.98-1.86 3.97-2.78 5.97-5.01 10.9-10.5 21.4-16.1 32-0.696 1.3-0.696 1.3-1.41 2.63-15.6 29.1-32.7 57.2-51.9 84-1.67 2.33-3.32 4.68-4.98 7.02-6.75 9.51-13.9 18.6-21.3 27.6-1.91 2.32-3.79 4.67-5.66 7.02-1.25 1.56-2.5 3.13-3.75 4.69-0.692 0.868-1.38 1.74-2.1 2.63-4.77 5.91-9.73 11.5-14.9 17.1-2.46 2.67-4.7 5.48-6.95 8.32-5.77 7.1-12.3 13.4-18.8 19.9-1.22 1.21-2.44 2.42-3.65 3.62-2.23 2.21-4.46 4.42-6.69 6.63-4.04 3.99-8.05 8.02-12 12.1-1.56 1.57-3.11 3.13-4.67 4.7-0.769 0.777-1.54 1.55-2.33 2.36-4.22 4.23-8.51 8.3-13 12.2-2.61 2.25-5.11 4.6-7.63 6.95-4.6 4.25-9.33 8.26-14.2 12.2-2.88 2.36-5.68 4.79-8.48 7.25-6.37 5.59-12.8 10.9-19.7 15.9-2.16 1.59-4.3 3.21-6.44 4.84-9.59 7.27-19.3 14.4-29.2 21.1-2.3 1.54-4.59 3.1-6.87 4.66-22.1 14.9-44.8 28.5-68.2 41.1-2.47 1.34-4.93 2.68-7.39 4.04-28.3 15.5-58.4 28.5-88.6 39.6-1.06 0.398-2.13 0.795-3.22 1.2-31.3 11.7-63.2 21.3-95.8 28.8-1.28 0.297-2.56 0.594-3.87 0.9-31.9 7.37-64.3 12.3-96.8 15.9-0.895 0.0993-1.79 0.199-2.71 0.301-6.2 0.679-12.4 1.3-18.6 1.89-0.939 0.0929-1.88 0.186-2.85 0.281-18 1.75-35.9 2.12-54 2.09-1.08-1.38e-4 -1.08-1.38e-4 -2.17-2.78e-4 -24.7-0.00407-49-1.12-73.5-4.07-3.47-0.412-6.94-0.793-10.4-1.18-88.7-9.82-174-33.5-303-95.9-2.39-1.38-4.79-2.73-7.19-4.08-10.2-5.74-20.1-11.7-29.9-18.1-1.73-1.09-3.46-2.17-5.19-3.25-8.42-5.36-16.6-11.1-24.8-16.8-0.757-0.523-1.51-1.05-2.29-1.59-9.17-6.35-18.1-12.9-26.8-19.9-2.14-1.7-4.3-3.37-6.47-5.03-14.1-10.9-14.1-10.9-20.4-16.7-2.3-2.06-4.69-3.97-7.1-5.89-6.34-5.14-12.2-10.7-18.1-16.4-3.01-2.85-6.07-5.64-9.18-8.39-4.28-3.81-8.31-7.82-12.3-11.9-2.3-2.31-2.3-2.31-4.92-4.33-2.15-1.72-3.78-3.38-5.53-5.49-2.97-3.48-6.12-6.73-9.38-9.94-3.7-3.66-7.25-7.39-10.6-11.4-1.9-2.18-3.85-4.3-5.81-6.42-4.76-5.13-9.3-10.4-13.7-15.8-2.17-2.66-4.4-5.25-6.66-7.84-6.5-7.46-12.4-15.2-18.3-23.2-2-2.68-4.07-5.3-6.14-7.92-20-25.9-37.1-54-53.8-82.2-0.373-0.63-0.746-1.26-1.13-1.91-6.07-10.3-11.6-21-16.9-31.7-0.347-0.692-0.693-1.38-1.05-2.1-7.23-14.5-14-29.1-20.4-44l-1.42-3.29c-8.2-19.2-15.1-38.8-21.9-58.6-0.668-1.96-1.34-3.93-2.01-5.89-23.2-68.2-34.8-140-38.7-212-0.0578-0.991-0.116-1.98-0.175-3-4.34-74.9 4.72-151 22.2-224 0.173-0.724 0.346-1.45 0.525-2.19 17.5-72.9 45.6-144 83.5-209 1.08-1.87 2.16-3.73 3.24-5.6 11.7-20.1 24.6-39.3 37.8-58.4l1.44-2.09c6.06-8.73 12.6-17 19.2-25.3 1.71-2.13 3.39-4.28 5.06-6.44 5.77-7.44 11.6-14.7 18-21.6 2.28-2.56 4.44-5.19 6.59-7.87 7.81-9.63 16.4-18.5 25.2-27.2 2.71-2.74 5.21-5.6 7.72-8.52 5.12-5.78 10.7-11 16.6-16 2.6-2.34 5.02-4.82 7.46-7.31 4.39-4.47 9.04-8.47 13.9-12.4 2.85-2.32 5.55-4.76 8.25-7.25 5.33-4.89 10.9-9.47 16.5-14 1.11-0.901 2.22-1.8 3.32-2.7 35.5-28.8 73.6-54.2 114-76.3l2.76-1.53c6.38-3.55 12.8-7.04 19.2-10.5l2.59-1.38c75.7-40.1 161-65.1 281-82.4 0.897-0.101 1.79-0.202 2.72-0.306 6.36-0.709 12.7-1.35 19.1-1.94 0.99-0.094 1.98-0.188 3-0.285 20-1.84 39.9-2.12 60-2.09zm363 451c-0.978 0.978-0.978 0.978-1.98 1.98-1.13 1.12-1.13 1.12-2.29 2.27-0.831 0.839-1.66 1.68-2.52 2.54-0.886 0.882-1.77 1.76-2.69 2.67-2.48 2.47-4.95 4.95-7.42 7.42-2.68 2.69-5.37 5.37-8.06 8.05-4.71 4.71-9.42 9.42-14.1 14.1-7 7.01-14 14-21 21-12.5 12.5-25 25-37.5 37.5-10.9 10.9-21.9 21.9-32.8 32.8-0.725 0.725-1.45 1.45-2.2 2.2-2.94 2.94-5.88 5.88-8.83 8.83-27.6 27.6-55.2 55.2-82.8 82.9-24.6 24.6-49.1 49.1-73.7 73.7-1.58 1.58-3.15 3.15-4.73 4.73-0.78 0.78-1.56 1.56-2.36 2.36-3.92 3.92-7.85 7.85-11.8 11.8-0.774 0.774-1.55 1.55-2.35 2.35-20.5 20.5-41 41-61.5 61.5-2.2 2.2-4.41 4.41-6.61 6.61-1.46 1.46-2.92 2.93-4.39 4.39-10.2 10.2-20.4 20.4-30.6 30.6-13.2 13.2-26.3 26.3-39.5 39.5-6.96 6.97-13.9 13.9-20.9 20.9-4.65 4.64-9.29 9.29-13.9 13.9-2.65 2.65-5.3 5.31-7.96 7.96-2.85 2.84-5.69 5.7-8.54 8.55-1.26 1.25-1.26 1.25-2.54 2.53-0.749 0.754-1.5 1.51-2.27 2.29-0.652 0.652-1.3 1.3-1.98 1.98-1.59 1.52-1.59 1.52-1.37 3.63h-4c-0.377-0.886-0.377-0.886-0.762-1.79-1.39-2.49-2.85-3.79-5.05-5.59-3.52-2.98-6.31-6.03-9.19-9.62-2.06-2.31-2.06-2.31-4-4h-2c-0.33-0.99-0.66-1.98-1-3-1.88-2.21-1.88-2.21-4-4h-2c-0.33-0.99-0.66-1.98-1-3-0.722-0.578-1.44-1.16-2.19-1.75-2.32-1.86-3.94-3.49-5.81-5.75-1.77-2.13-3.32-3.75-5.5-5.5-2.83-2.26-4.92-4.78-7.17-7.61-0.44-0.459-0.879-0.918-1.33-1.39h-2c-0.33-0.99-0.66-1.98-1-3-1.88-2.21-1.88-2.21-4-4h-2c-0.33-0.99-0.66-1.98-1-3-1.45-1.22-2.9-2.43-4.38-3.61-2.55-2.2-4.5-4.77-6.62-7.39-2.06-2.31-2.06-2.31-4-4h-2c-0.33-0.99-0.66-1.98-1-3-1.88-2.21-1.88-2.21-4-4h-2c-0.33-0.99-0.66-1.98-1-3-1.98-1.69-3.98-3.35-6-5l-2-3h-2c-0.33-0.99-0.66-1.98-1-3-1.88-2.21-1.88-2.21-4-4h-2c-0.33-0.99-0.66-1.98-1-3-1.88-2.21-1.88-2.21-4-4h-2c-0.33-0.99-0.66-1.98-1-3-1.98-1.69-3.98-3.35-6-5l-2-3h-2c-0.33-0.99-0.66-1.98-1-3-1.88-2.21-1.88-2.21-4-4h-2c-0.33-0.99-0.66-1.98-1-3-1.88-2.21-1.88-2.21-4-4h-2c-0.33-0.99-0.66-1.98-1-3-1.98-1.69-3.98-3.35-6-5l-2-3h-2c-0.33-0.99-0.66-1.98-1-3-1.88-2.21-1.88-2.21-4-4h-2c-0.33-0.99-0.66-1.98-1-3l-2.19-1.75c-2.32-1.86-3.94-3.49-5.81-5.75-2.43-2.92-5.02-5.13-8-7.5l-2.44-2.94c-2.47-3.14-2.47-3.14-5.56-5.56-2.58-2.15-4.51-4.3-6.6-6.91-2.2-2.5-4.75-4.57-7.28-6.73-3.55-3.12-6.82-6.5-10.1-9.87-0.999-1-2-2-3-3-3.89 1.6-6.36 4.11-9.32 7.06-0.518 0.514-1.04 1.03-1.57 1.56-1.7 1.7-3.4 3.4-5.1 5.1-1.18 1.18-2.36 2.36-3.55 3.54-2.47 2.47-4.95 4.95-7.41 7.42-3.17 3.18-6.35 6.35-9.53 9.52-2.44 2.43-4.88 4.87-7.31 7.31-1.17 1.17-2.34 2.34-3.52 3.51-1.64 1.63-3.26 3.27-4.89 4.91-0.929 0.931-1.86 1.86-2.82 2.82-2.21 1.99-2.21 1.99-1.99 4.24-0.557 0.227-1.11 0.454-1.69 0.688-2.97 1.69-5.03 3.78-7.31 6.31v2c-0.581 0.256-1.16 0.512-1.76 0.776-2.46 1.35-4.11 2.84-6.09 4.82-0.74 0.734-1.48 1.47-2.24 2.22-0.789 0.793-1.58 1.59-2.39 2.4-1.22 1.22-1.22 1.22-2.47 2.47-1.72 1.72-3.44 3.44-5.15 5.16-2.64 2.65-5.28 5.28-7.93 7.92-1.67 1.67-3.34 3.34-5 5.01-0.797 0.793-1.59 1.59-2.41 2.4-0.728 0.734-1.46 1.47-2.21 2.22-0.645 0.647-1.29 1.29-1.96 1.96-1.59 1.53-1.59 1.53-1.38 3.63l-1.88 0.812c-2.42 1.14-2.42 1.14-4.12 4.19 105 105 211 211 319 319 3.76-1.88 5.65-3.4 8.57-6.32 0.919-0.914 1.84-1.83 2.79-2.77 1.02-1.02 2.04-2.05 3.06-3.07 1.09-1.08 2.18-2.17 3.26-3.25 3.01-3 6.01-6 9.01-9 3.26-3.26 6.52-6.51 9.78-9.77 5.72-5.71 11.4-11.4 17.2-17.1 8.5-8.5 17-17 25.5-25.5 17-16.9 33.9-33.9 50.9-50.8 1.32-1.32 1.32-1.32 2.66-2.66 0.88-0.88 1.76-1.76 2.67-2.67 9.74-9.74 19.5-19.5 29.2-29.2 29.4-29.4 58.8-58.8 88.2-88.2 0.95-0.95 1.9-1.9 2.85-2.85 4.29-4.29 8.58-8.58 12.9-12.9 1.91-1.91 3.83-3.83 5.74-5.74 0.958-0.957 1.92-1.91 2.87-2.87 30.3-30.3 60.6-60.6 90.9-90.8 33.5-33.4 67-66.9 100-100 3.56-3.56 7.13-7.13 10.7-10.7 0.878-0.878 1.76-1.76 2.66-2.66 14.2-14.2 28.3-28.3 42.5-42.4 14.2-14.2 28.4-28.4 42.6-42.6 8.45-8.46 16.9-16.9 25.4-25.4 5.65-5.63 11.3-11.3 16.9-16.9 3.21-3.22 6.43-6.44 9.66-9.65 2.93-2.91 5.85-5.84 8.76-8.77 1.05-1.06 2.11-2.11 3.18-3.16 1.43-1.42 2.85-2.85 4.26-4.28 0.792-0.791 1.58-1.58 2.4-2.4 1.78-2.02 1.78-2.02 1.4-4.32-1.18-2.56-2.8-4.17-4.79-6.16-0.848-0.855-1.7-1.71-2.57-2.59-0.947-0.94-1.89-1.88-2.84-2.82-0.993-0.995-1.98-1.99-2.98-2.99-2.69-2.7-5.4-5.4-8.1-8.09-2.83-2.82-5.65-5.64-8.47-8.46-4.74-4.74-9.48-9.47-14.2-14.2-5.49-5.47-11-11-16.5-16.4-5.26-5.27-10.5-10.5-15.8-15.8-2.25-2.24-4.49-4.49-6.74-6.73-2.64-2.64-5.28-5.28-7.93-7.91-0.973-0.969-1.94-1.94-2.91-2.91-1.32-1.32-2.65-2.64-3.97-3.95-1.11-1.11-1.11-1.11-2.25-2.24-1.67-1.78-1.67-1.78-3.82-1.57-0.247-0.578-0.495-1.16-0.75-1.75-1.44-2.6-2.99-4.33-5.25-6.25-2.98-0.309-2.98-0.309-4.75 1.37z" fill="#000100"/>
</svg>
