<?xml version="1.0" standalone="no"?>
<!DOCTYPE svg PUBLIC "-//W3C//DTD SVG 20010904//EN"
 "http://www.w3.org/TR/2001/REC-SVG-20010904/DTD/svg10.dtd">
<svg version="1.0" xmlns="http://www.w3.org/2000/svg"
 width="512.000000pt" height="512.000000pt" viewBox="0 0 512.000000 512.000000"
 preserveAspectRatio="xMidYMid meet">

<g transform="translate(0.000000,512.000000) scale(0.100000,-0.100000)"
fill="#000000" stroke="none">
<path d="M2380 5113 c-493 -48 -865 -174 -1235 -419 -524 -346 -908 -884
-1059 -1481 -212 -838 -14 -1688 544 -2337 267 -310 653 -577 1045 -721 600
-221 1302 -200 1887 56 579 253 1069 735 1326 1302 350 775 296 1666 -145
2392 -195 320 -518 643 -838 838 -335 204 -718 329 -1115 366 -106 10 -328 12
-410 4z m690 -2808 l-1020 -1020 -510 510 -510 510 177 177 178 178 332 -332
333 -333 842 842 843 843 177 -177 178 -178 -1020 -1020z"/>
</g>
</svg>
